Coordinates
version=1
nRows=11
nColumns=42
inDegrees=yes

Units are S.I. units (second, meters, Newtons, ...)
If the header above contains a line with 'inDegrees', this indicates whether rotational values are in degrees (yes) or radians (no).

endheader
time	pelvis_tilt	pelvis_list	pelvis_rotation	pelvis_tx	pelvis_ty	pelvis_tz	hip_flexion_r	hip_adduction_r	hip_rotation_r	knee_angle_r	knee_adduction_r	knee_angle_r_beta	ankle_angle_r	subtalar_angle_r	mtp_angle_r	hip_flexion_l	hip_adduction_l	hip_rotation_l	knee_angle_l	knee_adduction_l	knee_angle_l_beta	ankle_angle_l	subtalar_angle_l	mtp_angle_l	lumbar_extension	lumbar_bending	lumbar_rotation	arm_flex_r	arm_add_r	arm_rot_r	elbow_flex_r	pro_sup_r	wrist_flex_r	wrist_dev_r	arm_flex_l	arm_add_l	arm_rot_l	elbow_flex_l	pro_sup_l	wrist_flex_l	wrist_dev_l
      1.69000000	     16.17592503	     -0.93117341	      7.44225950	      0.56318749	      0.88213118	     -0.19784137	    -29.93081867	      6.21269844	    -39.74892030	     25.65963902	     -9.78809124	      0.44784519	     35.57734207	     38.63785649	     -7.52583571	     18.18409386	      2.72370249	    -17.67811622	     21.05096491	     -8.91463926	      0.36740865	     17.39893597	     33.02694296	     -7.52583571	    -40.02890493	      6.24342765	      2.81554532	     17.19605393	    -19.49910898	      3.33344582	     50.12129240	     90.00000001	      0.00000000	      0.00000000	     -4.93190259	     -6.50635649	     -3.20962138	     34.82811776	     90.00000001	      0.00000000	      0.00000000
      1.70000000	     15.89904015	     -0.78933580	      7.09011804	      0.57883500	      0.88083627	     -0.19881406	    -29.93324623	      5.51418536	    -39.74355334	     27.01633091	    -10.45378868	      0.47152393	     33.67440968	     38.71568825	     -7.52377050	     18.31325827	      3.35764804	    -16.87044151	     22.26155860	     -9.51557892	      0.38853749	     16.83154742	     32.29398702	     -7.52377050	    -39.41832716	      5.77022026	      2.98287013	     16.48528466	    -19.15203482	      2.21229009	     50.08403043	     90.00000001	      0.00000000	      0.00000000	     -5.25385222	     -6.23929847	     -4.35106635	     34.01324220	     90.00000001	      0.00000000	      0.00000000
      1.71000000	     15.63390756	     -0.54839629	      6.77348579	      0.59464649	      0.87970804	     -0.19989617	    -29.93478164	      4.66873993	    -39.73619387	     28.49219890	    -10.99416276	      0.49728268	     32.33166499	     38.76713568	     -7.52355249	     18.47092372	      4.03797382	    -16.20547422	     23.80030873	    -10.14033726	      0.41539375	     16.47691427	     32.11850798	     -7.52355249	    -38.78750034	      5.23252270	      2.99073381	     15.78633840	    -19.01041981	      2.10918903	     49.91171534	     90.00000001	      0.00000000	      0.00000000	     -5.80100961	     -6.24092145	     -4.48872892	     33.68660521	     90.00000001	      0.00000000	      0.00000000
      1.72000000	     15.43621591	     -0.18428355	      6.46233948	      0.61047076	      0.87907454	     -0.20098627	    -29.93651646	      3.74213423	    -39.73192897	     29.87639679	    -11.63688822	      0.52144149	     29.18643498	     38.80558983	     -7.52163691	     18.44633580	      4.89873403	    -15.04827495	     25.41345171	    -10.69177882	      0.44354841	     16.00018226	     30.21057792	     -7.52163691	    -38.28042194	      4.57422819	      2.99561107	     14.93218985	    -18.53707850	      0.87209812	     49.91330674	     90.00000001	      0.00000000	      0.00000000	     -5.94960626	     -6.06337059	     -5.61777739	     32.80316342	     90.00000001	      0.00000000	      0.00000000
      1.73000000	     15.27347336	      0.30643181	      6.18357373	      0.62633956	      0.87866870	     -0.20217994	    -29.93755935	      2.64681372	    -39.72702488	     31.37437199	    -12.16679437	      0.54758609	     26.20790555	     38.82305281	     -7.52020354	     18.40457004	      5.81445362	    -14.06564294	     27.21894459	    -11.17359616	      0.47506020	     15.85031590	     28.60023008	     -7.52020354	    -37.80675355	      3.80549229	      2.86394172	     14.08797251	    -18.21334816	      0.34627444	     49.80104042	     90.00000001	      0.00000000	      0.00000000	     -6.17926301	     -6.07858252	     -6.30524100	     32.21464449	     90.00000001	      0.00000000	      0.00000000
      1.74000000	     15.19221692	      0.90891667	      5.89248390	      0.64219044	      0.87861281	     -0.20340112	    -29.93806148	      1.39074197	    -39.72441123	     32.95239345	    -12.65903573	      0.57512776	     22.62571797	     38.82533114	     -7.51962830	     18.23443407	      6.76413638	    -13.26413386	     29.05481336	    -11.54786082	      0.50710216	     15.97149584	     27.07783872	     -7.51962830	    -37.44673503	      2.93393138	      2.68040661	     13.23188471	    -17.90082762	      0.05947647	     49.70258745	     90.00000001	      0.00000000	      0.00000000	     -6.35891017	     -6.20245202	     -6.65094173	     31.73413389	     90.00000001	      0.00000000	      0.00000000
      1.75000000	     15.21297483	      1.63742966	      5.62728560	      0.65785517	      0.87895568	     -0.20464390	    -29.93824890	      0.00573657	    -39.72397847	     34.62759663	    -13.12264329	      0.60436557	     18.50721069	     38.79937252	     -7.51901072	     17.79703503	      7.83322172	    -12.03900082	     30.75115263	    -11.60482271	      0.53670886	     16.20391348	     24.78020722	     -7.51901072	    -37.25668659	      1.95460342	      2.42350113	     12.36172268	    -17.53238679	     -0.33586359	     49.64331010	     90.00000001	      0.00000000	      0.00000000	     -6.40090576	     -6.34243607	     -7.11345884	     31.18123945	     90.00000001	      0.00000000	      0.00000000
      1.76000000	     15.34686780	      2.49042981	      5.35169286	      0.67332744	      0.87965537	     -0.20593548	    -29.93751359	     -1.55094070	    -39.72418408	     36.41650099	    -13.55512399	      0.63558784	     14.03507940	     38.74782372	     -7.51838913	     17.06476129	      9.00147653	    -10.71757193	     32.19096370	    -11.42202454	      0.56183831	     16.54980541	     22.25180457	     -7.51838913	    -37.23884835	      0.87107519	      2.09684811	     11.49709656	    -17.14697917	     -0.69532702	     49.58693713	     90.00000001	      0.00000000	      0.00000000	     -6.32557763	     -6.52586005	     -7.63807365	     30.68406446	     90.00000001	      0.00000000	      0.00000000
      1.77000000	     15.60655908	      3.48158604	      5.03371742	      0.68861501	      0.88049587	     -0.20726705	    -29.93534986	     -3.39898147	    -39.71654290	     38.61991615	    -13.84107741	      0.67404469	     10.98667593	     38.63867608	     -7.51817604	     16.11618909	     10.18797804	    -10.18164285	     33.33603812	    -11.31068086	      0.58182362	     17.22491922	     21.25377788	     -7.51817604	    -37.37870594	     -0.33860986	      1.65473679	     10.71694112	    -16.80827005	     -0.76551186	     49.46042117	     90.00000001	      0.00000000	      0.00000000	     -6.29438442	     -6.78396701	     -7.86459519	     30.43882479	     90.00000001	      0.00000000	      0.00000000
      1.78000000	     16.01037747	      4.47295291	      4.80664839	      0.70345617	      0.88202635	     -0.20856299	    -29.93283813	     -5.01021973	    -39.72132003	     40.41856420	    -14.37855239	      0.70543702	      5.15915224	     38.53101856	     -7.51666571	     14.58998718	     11.57278818	     -8.25028308	     33.90325102	    -10.73762606	      0.59172336	     17.41797385	     17.27806471	     -7.51666571	    -37.78327773	     -1.48652875	      1.25118069	      9.92041749	    -16.37894432	     -1.22132310	     49.55234976	     90.00000001	      0.00000000	      0.00000000	     -5.85131061	     -6.88992512	     -9.11883833	     29.85259616	     90.00000001	      0.00000000	      0.00000000
      1.79000000	     16.55549687	      5.49377632	      4.51845097	      0.71814961	      0.88361408	     -0.20983878	    -29.92861204	     -6.78717555	    -39.71446677	     42.57622415	    -14.80465450	      0.74309529	      0.92805871	     38.34168699	     -7.51610790	     12.94545100	     12.77896959	     -8.11489598	     34.14794286	    -10.74156531	      0.59599404	     18.26271056	     16.82767158	     -7.51610790	    -38.34216794	     -2.64544514	      0.78307587	      9.18316023	    -16.09732758	     -1.17810766	     49.55847628	     90.00000001	      0.00000000	      0.00000000	     -5.57619924	     -7.16780403	     -9.47841386	     29.74659454	     90.00000001	      0.00000000	      0.00000000
